<?xml version="1.0" encoding="UTF-8"?>
<svg width="117px" height="30px" viewBox="0 0 117 30" version="1.1" xmlns="http://www.w3.org/2000/svg" xmlns:xlink="http://www.w3.org/1999/xlink">
    <!-- Generator: Sketch 48.2 (47327) - http://www.bohemiancoding.com/sketch -->
    <title>Group 2</title>
    <desc>Created with Sketch.</desc>
    <defs></defs>
    <g id="01_portfolio_-copy" stroke="none" stroke-width="1" fill="none" fill-rule="evenodd" transform="translate(-94.000000, -46.000000)">
        <g id="Group-3" transform="translate(94.000000, 46.000000)" fill="#FFFFFF">
            <g id="Group-2">
                <g id="MM-Mark/White/Mobile">
                    <path d="M0,29.2682927 L50.4625736,29.2682927 L50.4625736,0 L0,0 L0,29.2682927 Z M3.36417157,26.0170732 L47.098402,26.0170732 L47.098402,3.25203252 L3.36417157,3.25203252 L3.36417157,26.0170732 Z M35.3238015,10.7138211 L26.9133726,6.50406504 L26.9133726,22.7642276 L43.7342304,22.7642276 L43.7342304,6.50406504 L35.3238015,10.7138211 Z M15.1387721,10.7138211 L6.72834315,6.50406504 L6.72834315,22.7642276 L23.549201,22.7642276 L23.549201,6.50406504 L15.1387721,10.7138211 Z" id="Page-1-Copy-2"></path>
                </g>
                <path d="M116.174278,10.9479266 C115.839593,6.52191163 112.020373,3 107.34687,3 L107.34687,10.9479266 L116.174278,10.9479266 Z M116.15066,12.0830977 L99.3507045,12.0830977 L96.7279436,9.35811075 C96.6519049,9.28204852 96.551672,9.10572245 96.4255168,9.10572245 C96.3252839,9.10572245 96.2233228,9.15585437 96.1230899,9.2319166 C95.9468183,9.38346483 95.9715885,9.66063097 96.1230899,9.8121792 L98.343191,12.0076117 C98.388123,14.5153603 99.5678758,16.7574673 101.407207,18.3046422 C102.29663,17.4806347 103.482143,16.9718245 104.786899,16.9718245 C106.904463,16.9718245 108.712688,18.3023372 109.432752,20.1698954 C110.15224,19.9929931 110.836012,19.7446384 111.460452,19.4006297 L112.798043,22.554331 C112.318768,22.8568512 112.015189,23.3869819 112.015189,23.9678207 C112.015189,24.9013117 112.798043,25.6838307 113.75544,25.6838307 C114.713989,25.6838307 115.49569,24.9266658 115.49569,23.9678207 C115.494538,23.0089757 114.737607,22.3019427 113.779058,22.3019427 L113.60221,22.3019427 L112.189732,19.0479776 C114.586681,17.5082937 116.15066,14.8587928 116.15066,12.0830977 Z M100.81445,21.9550529 C100.81445,24.1464517 102.596177,25.9293042 104.786899,25.9293042 C106.977622,25.9293042 108.759924,24.1464517 108.759924,21.9550529 C108.759924,19.7642302 106.977622,17.9813777 104.786899,17.9813777 C102.596177,17.9813777 100.81445,19.7642302 100.81445,21.9550529 Z" id="Fill-1"></path>
                <path d="M79.625,15.7890725 C79.625,15.9713639 79.5611981,16.1263112 79.4335938,16.2539152 C79.3059894,16.3815192 79.1510418,16.445321 78.96875,16.445321 L75.1953125,16.445321 L75.1953125,20.2187495 C75.1953125,20.4010408 75.1315106,20.5559881 75.0039062,20.6835921 C74.8763019,20.8111961 74.7213543,20.8749979 74.5390625,20.8749979 L72.4609375,20.8749979 C72.2786457,20.8749979 72.1236981,20.8111961 71.9960938,20.6835921 C71.8684894,20.5559881 71.8046875,20.4010408 71.8046875,20.2187495 L71.8046875,16.445321 L68.03125,16.445321 C67.8489582,16.445321 67.6940106,16.3815192 67.5664062,16.2539152 C67.4388019,16.1263112 67.375,15.9713639 67.375,15.7890725 L67.375,13.7109525 C67.375,13.5286611 67.4388019,13.3737139 67.5664062,13.2461099 C67.6940106,13.1185059 67.8489582,13.0547041 68.03125,13.0547041 L71.8046875,13.0547041 L71.8046875,9.28127556 C71.8046875,9.09898418 71.8684894,8.94403692 71.9960938,8.81643291 C72.1236981,8.68882891 72.2786457,8.62502712 72.4609375,8.62502712 L74.5390625,8.62502712 C74.7213543,8.62502712 74.8763019,8.68882891 75.0039062,8.81643291 C75.1315106,8.94403692 75.1953125,9.09898418 75.1953125,9.28127556 L75.1953125,13.0547041 L78.96875,13.0547041 C79.1510418,13.0547041 79.3059894,13.1185059 79.4335938,13.2461099 C79.5611981,13.3737139 79.625,13.5286611 79.625,13.7109525 L79.625,15.7890725 Z" id="plus"></path>
            </g>
        </g>
    </g>
</svg>