<?xml version="1.0" encoding="UTF-8"?>
<svg width="483px" height="411px" viewBox="0 0 483 411" version="1.1" xmlns="http://www.w3.org/2000/svg" xmlns:xlink="http://www.w3.org/1999/xlink">
    <!-- Generator: Sketch 48.2 (47327) - http://www.bohemiancoding.com/sketch -->
    <title>Group</title>
    <desc>Created with Sketch.</desc>
    <defs></defs>
    <g id="01_portfolio_-copy" stroke="none" stroke-width="1" fill="none" fill-rule="evenodd" transform="translate(-408.000000, -156.000000)">
        <g id="Group" transform="translate(408.000000, 156.000000)">
            <path d="M465.033288,50.9915806 C456.105857,52.0505267 440.066971,47.8139949 440.066971,47.8139949 C440.066971,47.8139949 403.60171,41.4588237 399.818799,41.3078659 C386.352173,29.9598796 384.234281,28.2948606 384.234281,28.2948606 C384.234281,28.2948606 338.38722,15.4335603 326.736571,16.0388859 C321.289388,15.8879282 318.868833,15.2826026 318.868833,15.2826026 C318.868833,15.2826026 309.638739,10.8943658 307.671804,10.8943658 C305.70487,10.8943658 300.257687,13.4666259 300.257687,13.4666259 L265.00233,27.6902823 L250.325053,28.7492285 L234.891492,22.3940572 C234.891492,22.3940572 218.096323,9.8354197 213.103508,0 C213.859791,9.38179917 214.313412,9.98637743 214.313412,9.98637743 L220.820288,24.9663172 L228.688026,35.4070625 C228.688026,35.4070625 191.465734,37.5249547 167.10549,16.6442115 L165.137808,15.1316449 L176.183879,33.8937486 L184.203322,43.5774632 L194.492362,47.9657 C194.492362,47.9657 199.636882,49.6299717 191.768397,51.5969062 C183.900659,53.5638406 162.868211,54.7744918 160.144993,54.7744918 C157.421028,54.7744918 139.71787,50.6889178 132.455458,44.6364093 C135.784001,52.5048945 136.69199,53.5638406 136.69199,53.5638406 C136.69199,53.5638406 148.342639,61.8859464 151.217562,63.2475553 C154.092484,64.6091642 166.953785,68.8464432 166.953785,68.8464432 C166.953785,68.8464432 158.329016,73.2339327 149.250627,75.655235 C140.172238,78.07579 114.146975,80.3453873 103.706229,78.9837784 C94.7795454,77.7731272 91.9046226,77.0168439 91.9046226,77.0168439 L100.377686,81.8587013 L107.186478,86.7005586 L140.777564,95.3253271 L89.3323625,107.883965 L71.1748371,106.067988 C71.1748371,106.067988 75.7140316,112.725822 77.5300084,113.784768 C79.3459851,114.844461 90.2403509,119.383656 94.4768826,120.139939 C98.7134144,120.896223 113.844312,123.014862 113.844312,123.014862 L74.5041278,133.00124 L44.2423327,133.303902 C44.2423327,133.303902 29.8677185,123.468483 27.5981212,124.225513 C25.3285239,124.981797 22.9072216,126.495111 22.9072216,126.495111 L31.5319902,136.784151 L53.9260473,149.948114 L79.0433223,151.00706 L65.8793592,156.907863 L37.1301308,155.69796 L15.795767,149.948114 L0.513911748,136.632446 L8.23069191,151.00706 L21.6965705,165.381674 L40.0050536,174.308358 L59.0705674,173.854738 L78.8916173,162.960372 L70.4185538,174.611021 C70.4185538,174.611021 68.9052398,185.80805 66.7873476,191.255232 C64.6687081,196.702415 64.2150876,198.821055 64.2150876,198.821055 L63.0044364,200.182664 C63.0044364,200.182664 83.128149,200.787989 95.0822082,197.913067 C96.2921121,208.807432 95.384871,209.563716 91.7529175,224.543655 C113.99527,221.668733 123.982394,215.767182 125.344003,214.708236 C122.922701,226.51059 120.199483,236.496967 120.199483,236.496967 L128.824252,236.79963 L110.515769,261.008917 L115.357626,265.850774 L126.705612,264.640123 C126.705612,264.640123 125.494961,272.508608 122.46908,274.929163 L119.442453,277.350465 C119.442453,277.350465 116.113909,287.185138 115.205921,288.093126 L114.297932,289.001115 C114.297932,289.001115 113.844312,293.237646 113.088029,294.145635 C112.330998,295.053623 111.574715,295.961611 111.574715,295.961611 L104.916881,304.283717 C104.916881,304.283717 119.13979,308.368544 120.502146,307.763218 C121.863755,307.15864 136.389327,302.921361 137.750936,300.500806 C139.113292,298.079504 140.172238,298.079504 139.26425,299.744523 C138.356261,301.408794 134.876013,305.342663 134.876013,305.342663 C134.876013,305.342663 135.481338,310.638141 134.422392,313.210401 C133.363446,315.782661 132.606416,318.506626 132.606416,318.506626 C132.606416,318.506626 126.402949,330.459938 125.041341,333.032198 C123.679732,335.604458 122.014713,338.782044 122.014713,338.782044 C122.014713,338.782044 126.705612,339.38737 132.455458,339.84099 C138.205304,340.295358 138.658924,341.807925 147.283693,340.143653 C155.908461,338.479381 159.539667,338.327676 159.539667,338.327676 C159.539667,338.327676 159.086047,349.67641 159.086047,350.281735 C159.086047,350.887061 158.631679,366.471579 158.631679,366.471579 C158.631679,366.471579 164.684187,360.268113 165.440471,358.301178 C166.197501,356.333497 166.197501,356.485202 167.55911,355.577213 C168.920719,354.669225 176.940162,349.222042 178.453476,349.67641 C179.96679,350.13003 180.723073,350.13003 180.723073,350.13003 L192.222765,342.41325 L190.406788,354.971888 C190.406788,354.971888 192.07106,387.50328 192.222765,389.772877 L192.373722,392.042475 L199.485177,410.2 L200.242208,395.069102 L217.037377,351.491639 L220.820288,361.478017 L228.385363,378.122228 L226.115766,351.340682 L244.87787,296.112569 L255.923941,319.111952 L254.410627,296.566937 L255.923941,277.350465 L271.508459,247.391333 L287.547345,277.19876 L283.764433,247.239628 L292.086539,230.898079 L292.389202,225.450897 L299.803319,217.734116 L302.224622,226.96421 L313.269945,245.272694 L308.125425,214.557278 L314.480596,194.735481 L327.341897,177.637649 L347.768272,172.644087 L368.649015,178.393932 L376.971121,187.926689 L376.365795,203.360249 L389.984126,192.616841 L395.279604,190.044581 L394.674279,196.248795 L387.411866,202.754924 L397.095581,202.754924 L412.831804,181.268855 C412.831804,181.268855 414.798738,164.927306 416.312052,162.657709 C417.824619,160.388112 423.72617,152.671332 423.72617,152.671332 L423.72617,137.994802 L417.068336,148.132137 L416.46301,150.855355 L409.048893,155.546254 L403.60171,144.651889 L394.371616,155.395297 L391.799356,139.810031 L376.971121,150.250777 L371.978306,134.362848 L359.570626,137.086814 C359.570626,137.086814 356.544746,136.784151 355.636757,132.395914 C354.728769,128.007677 354.577811,127.403099 354.577811,127.403099 L346.709326,136.784151 L338.689883,134.665511 L332.486417,126.948731 L334.301646,112.87678 L348.22264,95.6279899 L346.104,114.692756 L349.886911,119.837277 L353.972485,117.265016 L364.866851,105.614367 L369.859666,118.475668 C369.859666,118.475668 375.912175,122.106874 378.33273,118.77833 C380.754032,115.44904 385.746847,108.791953 385.746847,108.791953 L395.279604,120.290897 C395.279604,120.290897 399.062515,123.014862 401.937438,119.231951 C404.812361,115.44904 408.595272,110.607182 408.595272,110.607182 L414.193413,124.376471 C414.193413,124.376471 419.337933,127.100436 423.423507,121.35059 C427.508334,115.600745 430.837624,111.666876 430.837624,111.666876 L432.804559,121.047928 L428.568027,132.698577 L431.89657,133.303902 L442.033906,124.981797 L449.750686,106.673313 L462.310071,95.4762848 C462.310071,95.4762848 478.953535,63.7019231 480.013228,61.5832836 C481.072174,59.4646441 482.585488,52.6558523 482.585488,52.6558523 C482.585488,52.6558523 473.96072,49.9326345 465.033288,50.9915806 M380.230164,65.6270079 C380.230164,65.6270079 379.550854,65.4917438 378.872292,64.9484454 C378.192982,64.405147 375.272473,61.4846379 372.487975,61.0766037 C369.70273,60.6693167 367.665548,60.194024 367.665548,60.194024 C367.665548,60.194024 355.576225,59.1074272 343.622165,54.5562757 C342.99741,54.3186293 357.817424,51.364491 359.990617,50.8211926 C362.163811,50.2778943 361.960541,49.9378657 364.541022,49.86986 C367.12225,49.8026016 372.691245,49.1912975 375.068456,50.5491698 C377.445666,51.9077894 378.93955,55.0995741 379.007556,55.7108782 C379.075561,56.3221823 379.483596,57.6808019 380.094153,61.008598 C380.705457,64.3371413 380.230164,65.6270079 380.230164,65.6270079" id="Fill-1" fill="#FFFFFF"></path>
            <path d="M318.380026,102.262166 C317.922481,96.2132792 312.70127,91.4 306.312177,91.4 L306.312177,102.262166 L318.380026,102.262166 Z M318.347738,103.813567 L295.38071,103.813567 L291.795163,100.089418 C291.691212,99.9854663 291.554184,99.7444873 291.381719,99.7444873 C291.244692,99.7444873 291.105302,99.813001 290.968275,99.9169527 C290.727296,100.124069 290.761159,100.502862 290.968275,100.709978 L294.00335,103.710403 C294.064776,107.137659 295.677602,110.201872 298.192131,112.316344 C299.408051,111.190201 301.028753,110.494827 302.81247,110.494827 C305.707367,110.494827 308.179371,112.313194 309.163762,114.865524 C310.147365,114.623757 311.082143,114.284339 311.935807,113.814194 L313.764413,118.124252 C313.109202,118.537697 312.694182,119.262209 312.694182,120.056022 C312.694182,121.331793 313.764413,122.401235 315.073259,122.401235 C316.383681,122.401235 317.452336,121.366443 317.452336,120.056022 C317.450761,118.7456 316.415969,117.779322 315.105547,117.779322 L314.863781,117.779322 L312.932799,113.332236 C316.20964,111.228001 318.347738,107.607017 318.347738,103.813567 Z M297.38178,117.305239 C297.38178,120.300151 299.817558,122.736716 302.81247,122.736716 C305.807382,122.736716 308.243947,120.300151 308.243947,117.305239 C308.243947,114.311115 305.807382,111.87455 302.81247,111.87455 C299.817558,111.87455 297.38178,114.311115 297.38178,117.305239 Z" id="Fill-1" fill="#000000"></path>
            <path d="M147.5863,114.67 L147.5863,98.0842 C147.5863,93.6952 147.4477,92.9098 145.5535,92.6788 L144.0751,92.494 C143.7517,92.263 143.7517,91.5238 144.1213,91.339 C146.7085,91.108 149.8963,90.9694 154.4239,90.9694 C157.2883,90.9694 160.0141,91.2004 162.1393,92.3554 C164.3569,93.5104 165.9739,95.5894 165.9739,98.8234 C165.9739,103.2124 162.5089,105.6148 160.1989,106.5388 C159.9679,106.816 160.1989,107.278 160.4299,107.6476 C164.1259,113.6074 166.5745,117.3034 169.7161,119.9368 C170.5015,120.6298 171.6565,121.138 172.9039,121.2304 C173.1349,121.3228 173.1811,121.6924 172.9501,121.8772 C172.5343,122.0158 171.7951,122.1082 170.9173,122.1082 C166.9903,122.1082 164.6341,120.9532 161.3539,116.287 C160.1527,114.5776 158.2585,111.3898 156.8263,109.3108 C156.1333,108.2944 155.3941,107.8324 153.5461,107.8324 C151.4671,107.8324 151.3747,107.8786 151.3747,108.8488 L151.3747,114.67 C151.3747,119.521 151.4671,120.0754 154.1467,120.445 L155.1169,120.5836 C155.3941,120.8146 155.3017,121.6 155.0245,121.7386 C152.9455,121.6462 151.3747,121.6 149.5267,121.6 C147.5863,121.6 145.9231,121.6462 143.7517,121.7386 C143.4745,121.6 143.3821,120.907 143.6593,120.5836 L144.8143,120.445 C147.4939,120.1216 147.5863,119.521 147.5863,114.67 Z M151.3747,93.88 L151.3747,104.6908 C151.3747,105.5224 151.3747,106.0306 151.5133,106.2154 C151.6519,106.354 152.3449,106.4464 154.7011,106.4464 C156.3643,106.4464 158.1199,106.2616 159.4597,105.2452 C160.7071,104.275 161.7697,102.658 161.7697,99.5164 C161.7697,95.8666 159.5059,92.4016 154.3777,92.4016 C151.5133,92.4016 151.3747,92.5864 151.3747,93.88 Z M184.9159,112.1752 L184.9159,114.5776 C184.9159,119.521 185.1931,120.2602 187.6879,120.445 L189.4435,120.5836 C189.7207,120.8608 189.6283,121.6 189.3511,121.7386 C186.4867,121.6462 184.9159,121.6 183.0679,121.6 C181.1275,121.6 179.4643,121.6462 177.0157,121.7386 C176.7385,121.6 176.6461,120.8608 176.9233,120.5836 L178.3555,120.445 C181.0351,120.1678 181.1275,119.521 181.1275,114.5776 L181.1275,112.2214 C181.1275,109.6804 180.9889,109.0798 179.6491,106.4926 L174.1975,95.8666 C172.6267,92.8174 171.9337,92.5864 170.5477,92.3554 L169.2541,92.1244 C168.9769,91.801 169.0231,91.1542 169.3465,90.9694 C170.8249,91.0618 172.4881,91.108 174.7057,91.108 C176.8309,91.108 178.4941,91.0618 179.6491,90.9694 C180.0649,91.108 180.0649,91.8472 179.7877,92.1244 L179.1871,92.2168 C177.5701,92.4478 177.2467,92.6788 177.2467,93.0484 C177.2467,93.5104 178.4479,96.1438 178.6789,96.6058 C180.3883,100.0246 182.0977,103.6744 183.8995,106.8622 C185.3317,104.4136 186.8563,101.734 188.2423,99.0544 C189.5359,96.652 191.2453,93.5104 191.2453,92.956 C191.2453,92.6788 190.4137,92.3554 189.3049,92.2168 L188.4733,92.1244 C188.1499,91.801 188.1961,91.1542 188.5657,90.9694 C190.2289,91.0618 191.5687,91.108 193.0009,91.108 C194.4331,91.108 195.7267,91.0618 197.2975,90.9694 C197.6671,91.2004 197.7133,91.8472 197.3899,92.1244 L196.0963,92.3554 C193.6939,92.7712 192.3079,95.6818 189.9979,99.655 L187.0873,104.6908 C185.0545,108.202 184.9159,108.6178 184.9159,112.1752 Z M201.8251,114.67 L201.8251,97.114 C201.8251,93.88 201.5941,92.9098 199.6537,92.6326 L198.6373,92.494 C198.2677,92.263 198.2215,91.5238 198.6835,91.339 C202.6105,91.108 206.3527,90.9694 210.2797,90.9694 C214.1605,90.9694 217.4407,91.2466 220.4437,92.3554 C226.6807,94.6192 229.8223,99.886 229.8223,105.9844 C229.8223,111.8518 227.0041,116.8876 221.7373,119.752 C218.7343,121.369 214.9459,121.9696 211.3885,121.9696 C208.4317,121.9696 205.4749,121.6 203.8579,121.6 C201.9175,121.6 200.2543,121.6462 198.0829,121.7386 C197.8057,121.6 197.7133,120.8608 197.9905,120.5836 L199.0531,120.445 C201.7327,120.0754 201.8251,119.521 201.8251,114.67 Z M205.6135,96.5596 L205.6135,113.6074 C205.6135,116.056 205.7521,117.5344 206.5375,118.6432 C207.5539,120.0754 209.3095,120.5374 212.2201,120.5374 C221.1829,120.5374 225.2023,114.67 225.2023,106.0768 C225.2023,100.9948 222.7537,92.4016 210.6493,92.4016 C207.9235,92.4016 206.4451,92.7712 206.0755,93.0484 C205.7059,93.3256 205.6135,94.4806 205.6135,96.5596 Z M237.8611,114.67 L237.8611,98.038 C237.8611,93.2332 237.7687,92.5402 235.0429,92.2168 L234.3037,92.1244 C234.0265,91.9396 234.1189,91.108 234.3961,90.9694 C236.3827,91.0618 237.9535,91.108 239.8477,91.108 L248.5333,91.108 C251.4901,91.108 254.2159,91.108 254.7703,90.9694 C255.0475,91.7548 255.3247,95.0812 255.5095,97.114 C255.3247,97.3912 254.5855,97.4836 254.3545,97.2064 C253.6615,95.035 253.2457,93.418 250.8433,92.8174 C249.8731,92.5864 248.3947,92.5402 246.3619,92.5402 L243.0355,92.5402 C241.6495,92.5402 241.6495,92.6326 241.6495,94.3882 L241.6495,103.6282 C241.6495,104.9218 241.7881,104.9218 243.1741,104.9218 L245.8537,104.9218 C247.7941,104.9218 249.2263,104.8294 249.7807,104.6446 C250.3351,104.4598 250.6585,104.1826 250.8895,103.0276 L251.2591,101.1334 C251.4901,100.8562 252.2755,100.8562 252.4603,101.1796 C252.4603,102.2884 252.2755,104.0902 252.2755,105.8458 C252.2755,107.509 252.4603,109.2646 252.4603,110.281 C252.2755,110.6044 251.4901,110.6044 251.2591,110.3272 L250.8433,108.5254 C250.6585,107.6938 250.3351,107.0008 249.4111,106.7698 C248.7643,106.585 247.6555,106.5388 245.8537,106.5388 L243.1741,106.5388 C241.7881,106.5388 241.6495,106.585 241.6495,107.7862 L241.6495,114.3004 C241.6495,116.749 241.7881,118.3198 242.5273,119.1052 C243.0817,119.6596 244.0519,120.1678 248.1175,120.1678 C251.6749,120.1678 253.0147,119.983 254.0311,119.4748 C254.8627,119.0128 256.1101,117.3958 257.3113,114.9934 C257.6347,114.7624 258.2815,114.901 258.4663,115.3168 C258.1429,116.9338 256.9879,120.4912 256.3873,121.7386 C252.2293,121.6462 248.1175,121.6 244.0057,121.6 L239.8477,121.6 C237.8611,121.6 236.2903,121.6462 233.5645,121.7386 C233.2873,121.6 233.1949,120.8608 233.4721,120.5836 L234.9967,120.445 C237.6301,120.214 237.8611,119.521 237.8611,114.67 Z M264.8419,114.67 L264.8419,98.0842 C264.8419,93.6952 264.7033,92.9098 262.8091,92.6788 L261.3307,92.494 C261.0073,92.263 261.0073,91.5238 261.3769,91.339 C263.9641,91.108 267.1519,90.9694 271.6795,90.9694 C274.5439,90.9694 277.2697,91.2004 279.3949,92.3554 C281.6125,93.5104 283.2295,95.5894 283.2295,98.8234 C283.2295,103.2124 279.7645,105.6148 277.4545,106.5388 C277.2235,106.816 277.4545,107.278 277.6855,107.6476 C281.3815,113.6074 283.8301,117.3034 286.9717,119.9368 C287.7571,120.6298 288.9121,121.138 290.1595,121.2304 C290.3905,121.3228 290.4367,121.6924 290.2057,121.8772 C289.7899,122.0158 289.0507,122.1082 288.1729,122.1082 C284.2459,122.1082 281.8897,120.9532 278.6095,116.287 C277.4083,114.5776 275.5141,111.3898 274.0819,109.3108 C273.3889,108.2944 272.6497,107.8324 270.8017,107.8324 C268.7227,107.8324 268.6303,107.8786 268.6303,108.8488 L268.6303,114.67 C268.6303,119.521 268.7227,120.0754 271.4023,120.445 L272.3725,120.5836 C272.6497,120.8146 272.5573,121.6 272.2801,121.7386 C270.2011,121.6462 268.6303,121.6 266.7823,121.6 C264.8419,121.6 263.1787,121.6462 261.0073,121.7386 C260.7301,121.6 260.6377,120.907 260.9149,120.5836 L262.0699,120.445 C264.7495,120.1216 264.8419,119.521 264.8419,114.67 Z M268.6303,93.88 L268.6303,104.6908 C268.6303,105.5224 268.6303,106.0306 268.7689,106.2154 C268.9075,106.354 269.6005,106.4464 271.9567,106.4464 C273.6199,106.4464 275.3755,106.2616 276.7153,105.2452 C277.9627,104.275 279.0253,102.658 279.0253,99.5164 C279.0253,95.8666 276.7615,92.4016 271.6333,92.4016 C268.7689,92.4016 268.6303,92.5864 268.6303,93.88 Z" id="RYDER" fill="#000000"></path>
            <path d="M217.503,134.272 L217.503,129.288 C217.503,127.804 217.475,127.566 216.649,127.496 L216.299,127.468 C216.215,127.412 216.243,127.16 216.327,127.118 C217.027,127.146 217.503,127.16 218.091,127.16 C218.651,127.16 219.127,127.146 219.827,127.118 C219.911,127.16 219.939,127.412 219.855,127.468 L219.505,127.496 C218.679,127.566 218.651,127.804 218.651,129.288 L218.651,134.272 C218.651,135.756 218.679,135.952 219.505,136.05 L219.855,136.092 C219.939,136.148 219.911,136.4 219.827,136.442 C219.127,136.414 218.651,136.4 218.091,136.4 C217.503,136.4 217.027,136.414 216.327,136.442 C216.243,136.4 216.215,136.176 216.299,136.092 L216.649,136.05 C217.475,135.952 217.503,135.756 217.503,134.272 Z M226.561,134.034 C226.561,135.574 225.399,136.624 223.579,136.624 C222.403,136.624 221.661,136.26 221.395,136.106 C221.227,135.798 221.045,134.804 221.017,134.146 C221.087,134.048 221.297,134.02 221.353,134.104 C221.563,134.818 222.137,136.19 223.761,136.19 C224.937,136.19 225.511,135.42 225.511,134.58 C225.511,133.964 225.385,133.278 224.363,132.62 L223.033,131.752 C222.333,131.29 221.521,130.492 221.521,129.344 C221.521,128.014 222.557,126.936 224.377,126.936 C224.811,126.936 225.315,127.02 225.679,127.118 C225.861,127.174 226.057,127.202 226.169,127.202 C226.295,127.538 226.421,128.322 226.421,128.91 C226.365,128.994 226.141,129.036 226.071,128.952 C225.889,128.28 225.511,127.37 224.167,127.37 C222.795,127.37 222.501,128.28 222.501,128.924 C222.501,129.736 223.173,130.324 223.691,130.646 L224.811,131.346 C225.693,131.892 226.561,132.704 226.561,134.034 Z" id="IS" fill="#000000"></path>
            <path d="M158.8458,176.0692 L153.2402,176.0692 C152.2994,176.0692 152.2602,176.1084 152.2602,176.6964 L152.2602,179.46 C152.2602,181.518 152.3582,181.7924 153.4558,181.91 L154.0242,181.9688 C154.1418,182.0472 154.1026,182.4 153.985,182.4588 C152.9266,182.4196 152.2602,182.4 151.4958,182.4 C150.653,182.4 149.9866,182.4392 149.2222,182.4588 C149.1046,182.4 149.0654,182.0864 149.183,181.9688 L149.5162,181.91 C150.6138,181.714 150.653,181.518 150.653,179.46 L150.653,172.404 C150.653,170.346 150.5158,170.0128 149.4966,169.9344 L148.987,169.8952 C148.8694,169.8168 148.9086,169.464 149.0262,169.4052 C149.9866,169.4248 150.653,169.464 151.4958,169.464 C152.2602,169.464 152.9266,169.4444 153.7694,169.4052 C153.887,169.464 153.9262,169.8168 153.8086,169.8952 L153.4362,169.9344 C152.2994,170.052 152.2602,170.346 152.2602,172.404 L152.2602,174.658 C152.2602,175.2656 152.2994,175.2852 153.2402,175.2852 L158.8458,175.2852 C159.7866,175.2852 159.8258,175.2656 159.8258,174.658 L159.8258,172.404 C159.8258,170.346 159.7866,170.052 158.6302,169.9344 L158.2578,169.8952 C158.1402,169.8168 158.1794,169.464 158.297,169.4052 C159.1986,169.4444 159.865,169.464 160.6686,169.464 C161.433,169.464 162.0994,169.4444 162.9814,169.4052 C163.099,169.464 163.1382,169.8168 163.0206,169.8952 L162.609,169.9344 C161.4722,170.052 161.433,170.346 161.433,172.404 L161.433,179.46 C161.433,181.518 161.4722,181.7728 162.609,181.91 L163.0794,181.9688 C163.197,182.0472 163.1578,182.4 163.0402,182.4588 C162.0994,182.4196 161.433,182.4 160.6686,182.4 C159.865,182.4 159.1594,182.4196 158.297,182.4588 C158.1794,182.4 158.1402,182.0864 158.2578,181.9688 L158.6302,181.91 C159.8258,181.714 159.8258,181.518 159.8258,179.46 L159.8258,176.6964 C159.8258,176.1084 159.7866,176.0692 158.8458,176.0692 Z M171.821,182.7136 C167.4698,182.7136 164.8434,179.5972 164.8434,176.0692 C164.8434,172.1492 167.7834,169.1504 171.821,169.1504 C176.3486,169.1504 178.6222,172.4236 178.6222,175.8732 C178.6222,179.8324 175.6038,182.7136 171.821,182.7136 Z M172.0758,182.106 C174.4278,182.106 176.6622,180.342 176.6622,176.4808 C176.6622,173.2468 175.2314,169.758 171.4878,169.758 C169.4494,169.758 166.8034,171.1496 166.8034,175.442 C166.8034,178.3428 168.2146,182.106 172.0758,182.106 Z M191.3818,176.6376 L191.3818,174.3836 C191.3818,173.1684 191.3426,170.9144 191.0094,170.3264 C190.8722,170.0912 190.5194,169.954 190.0294,169.9148 L189.5394,169.8756 C189.4218,169.7384 189.461,169.4836 189.5786,169.4052 C190.3234,169.4444 191.0486,169.464 191.813,169.464 C192.6362,169.464 193.1654,169.4444 193.871,169.4052 C194.0278,169.5032 194.0082,169.758 193.9102,169.8756 L193.4398,169.9148 C192.9498,169.954 192.5774,170.1304 192.4598,170.3852 C192.1854,171.032 192.1854,173.286 192.1854,174.3836 L192.1854,176.5984 C192.1854,178.3036 191.911,180.1068 190.8134,181.2828 C189.9706,182.204 188.5202,182.7136 187.0698,182.7136 C185.7174,182.7136 184.365,182.4588 183.4046,181.6356 C182.3658,180.7732 181.8758,179.3424 181.8758,177.01 L181.8758,172.3844 C181.8758,170.346 181.8366,170.0128 180.6998,169.9148 L180.2098,169.8756 C180.0922,169.7972 180.1314,169.464 180.249,169.4052 C181.229,169.4444 181.8954,169.464 182.6794,169.464 C183.483,169.464 184.1298,169.4444 185.0902,169.4052 C185.2078,169.464 185.247,169.7972 185.1294,169.8756 L184.659,169.9148 C183.5222,170.0128 183.483,170.346 183.483,172.3844 L183.483,176.618 C183.483,179.7736 184.463,181.8512 187.4618,181.8512 C190.3038,181.8512 191.3818,179.6168 191.3818,176.6376 Z M202.7106,179.0876 C202.7106,181.2436 201.0838,182.7136 198.5358,182.7136 C196.8894,182.7136 195.8506,182.204 195.4782,181.9884 C195.243,181.5572 194.9882,180.1656 194.949,179.2444 C195.047,179.1072 195.341,179.068 195.4194,179.1856 C195.7134,180.1852 196.517,182.106 198.7906,182.106 C200.437,182.106 201.2406,181.028 201.2406,179.852 C201.2406,178.9896 201.0642,178.0292 199.6334,177.108 L197.7714,175.8928 C196.7914,175.246 195.6546,174.1288 195.6546,172.5216 C195.6546,170.6596 197.105,169.1504 199.653,169.1504 C200.2606,169.1504 200.9662,169.268 201.4758,169.4052 C201.7306,169.4836 202.005,169.5228 202.1618,169.5228 C202.3382,169.9932 202.5146,171.0908 202.5146,171.914 C202.4362,172.0316 202.1226,172.0904 202.0246,171.9728 C201.7698,171.032 201.2406,169.758 199.359,169.758 C197.4382,169.758 197.0266,171.032 197.0266,171.9336 C197.0266,173.0704 197.9674,173.8936 198.6926,174.3444 L200.2606,175.3244 C201.4954,176.0888 202.7106,177.2256 202.7106,179.0876 Z M206.2386,179.46 L206.2386,172.404 C206.2386,170.3656 206.1994,170.0716 205.043,169.9344 L204.7294,169.8952 C204.6118,169.8168 204.651,169.464 204.7686,169.4052 C205.6114,169.4444 206.2778,169.464 207.0814,169.464 L210.7662,169.464 C212.0206,169.464 213.177,169.464 213.4122,169.4052 C213.5298,169.7384 213.6474,171.1496 213.7258,172.012 C213.6474,172.1296 213.3338,172.1688 213.2358,172.0512 C212.9418,171.13 212.7654,170.444 211.7462,170.1892 C211.3346,170.0912 210.7074,170.0716 209.845,170.0716 L208.4338,170.0716 C207.8458,170.0716 207.8458,170.1108 207.8458,170.8556 L207.8458,174.7756 C207.8458,175.3244 207.9046,175.3244 208.4926,175.3244 L209.6294,175.3244 C210.4526,175.3244 211.0602,175.2852 211.2954,175.2068 C211.5306,175.1284 211.6678,175.0108 211.7658,174.5208 L211.9226,173.7172 C212.0206,173.5996 212.3538,173.5996 212.4322,173.7368 C212.4322,174.2072 212.3538,174.9716 212.3538,175.7164 C212.3538,176.422 212.4322,177.1668 212.4322,177.598 C212.3538,177.7352 212.0206,177.7352 211.9226,177.6176 L211.7462,176.8532 C211.6678,176.5004 211.5306,176.2064 211.1386,176.1084 C210.8642,176.03 210.3938,176.0104 209.6294,176.0104 L208.4926,176.0104 C207.9046,176.0104 207.8458,176.03 207.8458,176.5396 L207.8458,179.3032 C207.8458,180.342 207.9046,181.0084 208.2182,181.3416 C208.4534,181.5768 208.865,181.7924 210.5898,181.7924 C212.099,181.7924 212.6674,181.714 213.0986,181.4984 C213.4514,181.3024 213.9806,180.6164 214.4902,179.5972 C214.6274,179.4992 214.9018,179.558 214.9802,179.7344 C214.843,180.4204 214.353,181.9296 214.0982,182.4588 C212.3342,182.4196 210.5898,182.4 208.8454,182.4 L207.0814,182.4 C206.2386,182.4 205.5722,182.4196 204.4158,182.4588 C204.2982,182.4 204.259,182.0864 204.3766,181.9688 L205.0234,181.91 C206.1406,181.812 206.2386,181.518 206.2386,179.46 Z M225.4662,172.6392 L227.7006,177.1668 C228.1514,178.088 228.5826,178.9896 229.053,179.852 L229.0922,179.852 C229.6214,178.9308 230.1114,177.9116 230.6014,176.912 L232.4438,173.1684 C233.3258,171.3848 233.8942,170.3068 233.9334,169.4052 C234.5998,169.464 235.0114,169.464 235.4034,169.464 C235.8934,169.464 236.5402,169.4444 237.1478,169.4052 C237.2654,169.4836 237.2654,169.8168 237.1674,169.8952 L236.7558,169.9344 C235.521,170.052 235.3642,170.4244 235.3838,171.7964 C235.423,173.874 235.4426,177.5 235.5994,180.3224 C235.6582,181.3024 235.6386,181.8316 236.5598,181.91 L237.187,181.9688 C237.3046,182.0864 237.285,182.3804 237.1478,182.4588 C236.3442,182.4196 235.5406,182.4 234.835,182.4 C234.149,182.4 233.267,182.4196 232.4634,182.4588 C232.3262,182.3608 232.3066,182.0864 232.4242,181.9688 L232.9926,181.91 C233.953,181.812 233.953,181.4984 233.953,180.244 L233.8942,172.0708 L233.855,172.0708 C233.7178,172.2864 232.973,173.8544 232.581,174.6188 L230.8366,178.0488 C229.9546,179.7736 229.0726,181.616 228.7198,182.5176 C228.6806,182.5764 228.6022,182.596 228.5238,182.596 C228.4846,182.596 228.3866,182.5764 228.3474,182.5176 C228.0142,181.4788 227.0734,179.558 226.6226,178.5976 L224.8586,174.8148 C224.447,173.9132 224.0354,172.894 223.6042,171.9924 L223.565,171.9924 C223.4866,173.2076 223.4278,174.3444 223.369,175.4812 C223.3102,176.6768 223.2318,178.4212 223.2318,180.0872 C223.2318,181.5376 223.3494,181.8512 224.1138,181.91 L224.8586,181.9688 C224.9958,182.0864 224.9762,182.4 224.839,182.4588 C224.1726,182.4196 223.4082,182.4 222.6634,182.4 C222.0362,182.4 221.3306,182.4196 220.6642,182.4588 C220.5466,182.3608 220.5074,182.0668 220.625,181.9688 L221.0562,181.91 C221.8794,181.7924 222.1538,181.6748 222.2714,180.3028 C222.389,179.0092 222.487,177.9312 222.6046,175.9908 C222.7026,174.364 222.781,172.698 222.8202,171.62 C222.8594,170.3852 222.7026,170.0912 221.507,169.9344 L221.1934,169.8952 C221.0954,169.7776 221.115,169.4836 221.2718,169.4052 C221.8598,169.4444 222.3302,169.464 222.8202,169.464 C223.271,169.464 223.8002,169.464 224.447,169.4052 C224.3686,170.1696 224.8586,171.3848 225.4662,172.6392 Z M245.8306,182.7136 C241.4794,182.7136 238.853,179.5972 238.853,176.0692 C238.853,172.1492 241.793,169.1504 245.8306,169.1504 C250.3582,169.1504 252.6318,172.4236 252.6318,175.8732 C252.6318,179.8324 249.6134,182.7136 245.8306,182.7136 Z M246.0854,182.106 C248.4374,182.106 250.6718,180.342 250.6718,176.4808 C250.6718,173.2468 249.241,169.758 245.4974,169.758 C243.459,169.758 240.813,171.1496 240.813,175.442 C240.813,178.3428 242.2242,182.106 246.0854,182.106 Z M256.0422,179.46 L256.0422,172.4236 C256.0422,170.5616 255.9834,170.2284 255.1798,170.1304 L254.5526,170.052 C254.4154,169.954 254.4154,169.6404 254.5722,169.562 C255.6698,169.464 257.0222,169.4052 258.943,169.4052 C260.1582,169.4052 261.3146,169.5032 262.2162,169.9932 C263.157,170.4832 263.843,171.3652 263.843,172.7372 C263.843,174.5992 262.373,175.6184 261.393,176.0104 C261.295,176.128 261.393,176.324 261.491,176.4808 C263.059,179.0092 264.0978,180.5772 265.4306,181.6944 C265.7638,181.9884 266.2538,182.204 266.783,182.2432 C266.881,182.2824 266.9006,182.4392 266.8026,182.5176 C266.6262,182.5764 266.3126,182.6156 265.9402,182.6156 C264.2742,182.6156 263.2746,182.1256 261.883,180.146 C261.3734,179.4208 260.5698,178.0684 259.9622,177.1864 C259.6682,176.7552 259.3546,176.5592 258.5706,176.5592 C257.6886,176.5592 257.6494,176.5788 257.6494,176.9904 L257.6494,179.46 C257.6494,181.518 257.6886,181.7532 258.8254,181.91 L259.237,181.9688 C259.3546,182.0668 259.3154,182.4 259.1978,182.4588 C258.3158,182.4196 257.6494,182.4 256.8654,182.4 C256.0422,182.4 255.3366,182.4196 254.4154,182.4588 C254.2978,182.4 254.2586,182.106 254.3762,181.9688 L254.8662,181.91 C256.003,181.7728 256.0422,181.518 256.0422,179.46 Z M257.6494,170.64 L257.6494,175.2264 C257.6494,175.5792 257.6494,175.7948 257.7082,175.8732 C257.767,175.932 258.061,175.9712 259.0606,175.9712 C259.7662,175.9712 260.511,175.8928 261.0794,175.4616 C261.6086,175.05 262.0594,174.364 262.0594,173.0312 C262.0594,171.4828 261.099,170.0128 258.9234,170.0128 C257.7082,170.0128 257.6494,170.0912 257.6494,170.64 Z M275.015,180.5184 L274.1526,177.8528 C274.0154,177.4216 273.937,177.3628 273.349,177.3628 L270.3894,177.3628 C269.8994,177.3628 269.7818,177.4216 269.6446,177.8332 L268.9586,179.8912 C268.6646,180.7732 268.5274,181.3024 268.5274,181.518 C268.5274,181.7532 268.6254,181.8708 269.0958,181.91 L269.7426,181.9688 C269.8798,182.0668 269.8798,182.3804 269.7034,182.4588 C269.1938,182.4196 268.5862,182.4196 267.665,182.4 C267.0182,182.4 266.3126,182.4392 265.7834,182.4588 C265.6658,182.3804 265.6266,182.0668 265.7442,181.9688 L266.391,181.91 C266.8614,181.8708 267.2926,181.6552 267.567,180.9496 C267.9198,180.048 268.4686,178.774 269.2918,176.5788 L271.291,171.2868 C271.5654,170.5812 271.683,170.2088 271.6242,169.8952 C272.0946,169.758 272.4278,169.4052 272.6434,169.1504 C272.761,169.1504 272.8982,169.1896 272.9374,169.3268 C273.1922,170.1892 273.5058,171.0908 273.7998,171.9532 L276.485,179.8324 C277.0534,181.518 277.3082,181.812 278.151,181.91 L278.6802,181.9688 C278.8174,182.0668 278.7782,182.3804 278.6802,182.4588 C277.8766,182.4196 277.1906,182.4 276.3086,182.4 C275.3678,182.4 274.623,182.4392 274.0546,182.4588 C273.8978,182.3804 273.8782,182.0668 274.0154,181.9688 L274.5838,181.91 C274.9954,181.8708 275.2698,181.7532 275.2698,181.5572 C275.2698,181.3416 275.1718,180.9888 275.015,180.5184 Z M271.5066,172.698 L270.2718,176.1084 C270.115,176.5592 270.1346,176.5788 270.6834,176.5788 L273.0942,176.5788 C273.6626,176.5788 273.7018,176.5004 273.5254,175.9712 L272.467,172.7764 C272.3102,172.306 272.1338,171.7768 272.0162,171.5416 L271.977,171.5416 C271.9182,171.6396 271.7222,172.11 271.5066,172.698 Z M280.895,179.46 L280.895,172.404 C280.895,170.346 280.8558,170.0324 279.621,169.9344 L279.131,169.8952 C279.0134,169.8168 279.0526,169.464 279.1702,169.4052 C280.2678,169.4444 280.9342,169.464 281.7182,169.464 C282.4826,169.464 283.149,169.4444 284.129,169.4052 C284.2466,169.464 284.2858,169.8168 284.1682,169.8952 L283.6978,169.9344 C282.5414,170.0324 282.5022,170.346 282.5022,172.404 L282.5022,179.2248 C282.5022,180.4596 282.561,180.9692 282.9138,181.3416 C283.1294,181.5572 283.5018,181.7924 285.0502,181.7924 C286.7162,181.7924 287.1278,181.714 287.4414,181.5376 C287.8334,181.3024 288.343,180.5968 288.735,179.5972 C288.8526,179.4992 289.225,179.5776 289.225,179.7148 C289.225,179.9304 288.6762,181.9296 288.4018,182.4588 C287.4022,182.4196 285.5402,182.4 283.5214,182.4 L281.7182,182.4 C280.895,182.4 280.2678,182.4196 279.1702,182.4588 C279.0526,182.4 279.0134,182.0864 279.131,181.9688 L279.719,181.91 C280.8558,181.7924 280.895,181.518 280.895,179.46 Z M291.7338,179.46 L291.7338,172.404 C291.7338,170.3656 291.6946,170.0716 290.5382,169.9344 L290.2246,169.8952 C290.107,169.8168 290.1462,169.464 290.2638,169.4052 C291.1066,169.4444 291.773,169.464 292.5766,169.464 L296.2614,169.464 C297.5158,169.464 298.6722,169.464 298.9074,169.4052 C299.025,169.7384 299.1426,171.1496 299.221,172.012 C299.1426,172.1296 298.829,172.1688 298.731,172.0512 C298.437,171.13 298.2606,170.444 297.2414,170.1892 C296.8298,170.0912 296.2026,170.0716 295.3402,170.0716 L293.929,170.0716 C293.341,170.0716 293.341,170.1108 293.341,170.8556 L293.341,174.7756 C293.341,175.3244 293.3998,175.3244 293.9878,175.3244 L295.1246,175.3244 C295.9478,175.3244 296.5554,175.2852 296.7906,175.2068 C297.0258,175.1284 297.163,175.0108 297.261,174.5208 L297.4178,173.7172 C297.5158,173.5996 297.849,173.5996 297.9274,173.7368 C297.9274,174.2072 297.849,174.9716 297.849,175.7164 C297.849,176.422 297.9274,177.1668 297.9274,177.598 C297.849,177.7352 297.5158,177.7352 297.4178,177.6176 L297.2414,176.8532 C297.163,176.5004 297.0258,176.2064 296.6338,176.1084 C296.3594,176.03 295.889,176.0104 295.1246,176.0104 L293.9878,176.0104 C293.3998,176.0104 293.341,176.03 293.341,176.5396 L293.341,179.3032 C293.341,180.342 293.3998,181.0084 293.7134,181.3416 C293.9486,181.5768 294.3602,181.7924 296.085,181.7924 C297.5942,181.7924 298.1626,181.714 298.5938,181.4984 C298.9466,181.3024 299.4758,180.6164 299.9854,179.5972 C300.1226,179.4992 300.397,179.558 300.4754,179.7344 C300.3382,180.4204 299.8482,181.9296 299.5934,182.4588 C297.8294,182.4196 296.085,182.4 294.3406,182.4 L292.5766,182.4 C291.7338,182.4 291.0674,182.4196 289.911,182.4588 C289.7934,182.4 289.7542,182.0864 289.8718,181.9688 L290.5186,181.91 C291.6358,181.812 291.7338,181.518 291.7338,179.46 Z M309.2366,179.0876 C309.2366,181.2436 307.6098,182.7136 305.0618,182.7136 C303.4154,182.7136 302.3766,182.204 302.0042,181.9884 C301.769,181.5572 301.5142,180.1656 301.475,179.2444 C301.573,179.1072 301.867,179.068 301.9454,179.1856 C302.2394,180.1852 303.043,182.106 305.3166,182.106 C306.963,182.106 307.7666,181.028 307.7666,179.852 C307.7666,178.9896 307.5902,178.0292 306.1594,177.108 L304.2974,175.8928 C303.3174,175.246 302.1806,174.1288 302.1806,172.5216 C302.1806,170.6596 303.631,169.1504 306.179,169.1504 C306.7866,169.1504 307.4922,169.268 308.0018,169.4052 C308.2566,169.4836 308.531,169.5228 308.6878,169.5228 C308.8642,169.9932 309.0406,171.0908 309.0406,171.914 C308.9622,172.0316 308.6486,172.0904 308.5506,171.9728 C308.2958,171.032 307.7666,169.758 305.885,169.758 C303.9642,169.758 303.5526,171.032 303.5526,171.9336 C303.5526,173.0704 304.4934,173.8936 305.2186,174.3444 L306.7866,175.3244 C308.0214,176.0888 309.2366,177.2256 309.2366,179.0876 Z" id="HOUSE-MORALES" fill="#000000"></path>
            <path d="M133.2727,147.1388 C133.2727,142.0106 135.5827,137.6216 139.0939,134.8958 C142.4665,132.2624 146.7631,130.9688 151.5679,130.9688 C154.0627,130.9688 157.5739,131.477 159.7453,132.0776 C160.2997,132.2162 160.6231,132.3086 161.0389,132.2624 C161.0851,133.325 161.3161,136.2356 161.6857,139.0538 C161.4547,139.3772 160.7617,139.4234 160.4383,139.1462 C159.7453,136.0046 157.6663,132.401 150.9673,132.401 C143.8987,132.401 137.8927,136.8824 137.8927,146.4458 C137.8927,156.1478 144.0373,161.507 151.6141,161.507 C157.5739,161.507 160.2073,157.6262 161.2699,154.9004 C161.5933,154.6694 162.2863,154.7618 162.4711,155.0852 C162.1477,157.4876 160.9465,160.5368 160.2535,161.4146 C159.6991,161.507 159.1447,161.6918 158.6365,161.8766 C157.6201,162.2462 154.2937,162.9392 151.3369,162.9392 C147.1789,162.9392 143.2057,162.1076 139.8331,159.8438 C136.1371,157.3028 133.2727,153.0986 133.2727,147.1388 Z M181.9675,162.9392 C171.7111,162.9392 165.5203,155.5934 165.5203,147.2774 C165.5203,138.0374 172.4503,130.9688 181.9675,130.9688 C192.6397,130.9688 197.9989,138.6842 197.9989,146.8154 C197.9989,156.1478 190.8841,162.9392 181.9675,162.9392 Z M182.5681,161.507 C188.1121,161.507 193.3789,157.349 193.3789,148.2476 C193.3789,140.6246 190.0063,132.401 181.1821,132.401 C176.3773,132.401 170.1403,135.6812 170.1403,145.799 C170.1403,152.6366 173.4667,161.507 182.5681,161.507 Z M212.8291,139.1924 L218.0959,149.8646 C219.1585,152.036 220.1749,154.1612 221.2837,156.194 L221.3761,156.194 C222.6235,154.0226 223.7785,151.6202 224.9335,149.264 L229.2763,140.4398 C231.3553,136.2356 232.6951,133.6946 232.7875,131.5694 C234.3583,131.708 235.3285,131.708 236.2525,131.708 C237.4075,131.708 238.9321,131.6618 240.3643,131.5694 C240.6415,131.7542 240.6415,132.5396 240.4105,132.7244 L239.4403,132.8168 C236.5297,133.094 236.1601,133.9718 236.2063,137.2058 C236.2987,142.103 236.3449,150.65 236.7145,157.3028 C236.8531,159.6128 236.8069,160.8602 238.9783,161.045 L240.4567,161.1836 C240.7339,161.4608 240.6877,162.1538 240.3643,162.3386 C238.4701,162.2462 236.5759,162.2 234.9127,162.2 C233.2957,162.2 231.2167,162.2462 229.3225,162.3386 C228.9991,162.1076 228.9529,161.4608 229.2301,161.1836 L230.5699,161.045 C232.8337,160.814 232.8337,160.0748 232.8337,157.118 L232.6951,137.8526 L232.6027,137.8526 C232.2793,138.3608 230.5237,142.0568 229.5997,143.8586 L225.4879,151.9436 C223.4089,156.0092 221.3299,160.352 220.4983,162.4772 C220.4059,162.6158 220.2211,162.662 220.0363,162.662 C219.9439,162.662 219.7129,162.6158 219.6205,162.4772 C218.8351,160.0286 216.6175,155.501 215.5549,153.2372 L211.3969,144.3206 C210.4267,142.1954 209.4565,139.793 208.4401,137.6678 L208.3477,137.6678 C208.1629,140.5322 208.0243,143.2118 207.8857,145.8914 C207.7471,148.7096 207.5623,152.8214 207.5623,156.7484 C207.5623,160.1672 207.8395,160.9064 209.6413,161.045 L211.3969,161.1836 C211.7203,161.4608 211.6741,162.2 211.3507,162.3386 C209.7799,162.2462 207.9781,162.2 206.2225,162.2 C204.7441,162.2 203.0809,162.2462 201.5101,162.3386 C201.2329,162.1076 201.1405,161.4146 201.4177,161.1836 L202.4341,161.045 C204.3745,160.7678 205.0213,160.4906 205.2985,157.2566 C205.5757,154.2074 205.8067,151.6664 206.0839,147.0926 C206.3149,143.258 206.4997,139.331 206.5921,136.79 C206.6845,133.8794 206.3149,133.1864 203.4967,132.8168 L202.7575,132.7244 C202.5265,132.4472 202.5727,131.7542 202.9423,131.5694 C204.3283,131.6618 205.4371,131.708 206.5921,131.708 C207.6547,131.708 208.9021,131.708 210.4267,131.5694 C210.2419,133.3712 211.3969,136.2356 212.8291,139.1924 Z M248.1721,155.1776 L248.1721,138.7304 C248.1721,133.8332 248.0797,133.0478 245.3539,132.8168 L244.1989,132.7244 C243.9217,132.5396 244.0141,131.708 244.2913,131.5694 C246.6013,131.6618 248.1721,131.708 250.1125,131.708 C251.9605,131.708 253.5313,131.6618 255.8413,131.5694 C256.1185,131.708 256.2109,132.5396 255.9337,132.7244 L254.7787,132.8168 C252.0529,133.0478 251.9605,133.8332 251.9605,138.7304 L251.9605,155.1776 C251.9605,160.0748 252.0529,160.7216 254.7787,161.045 L255.9337,161.1836 C256.2109,161.3684 256.1185,162.2 255.8413,162.3386 C253.5313,162.2462 251.9605,162.2 250.1125,162.2 C248.1721,162.2 246.6013,162.2462 244.2913,162.3386 C244.0141,162.2 243.9217,161.4608 244.1989,161.1836 L245.3539,161.045 C248.0797,160.7216 248.1721,160.0748 248.1721,155.1776 Z M288.6433,143.3042 L288.6433,154.346 C288.6433,155.732 288.6433,161.2298 288.7819,162.431 C288.6895,162.7082 288.4123,162.9392 287.9041,162.9392 C287.3497,162.1538 286.0099,160.5368 281.9905,155.963 L271.2721,143.7662 C270.0247,142.334 266.8831,138.5456 265.9129,137.5292 L265.8205,137.5292 C265.6357,138.0836 265.5895,139.1462 265.5895,140.5322 L265.5895,150.6038 C265.5895,152.7752 265.6357,158.7812 266.4211,160.1672 C266.6983,160.6754 267.6223,160.9526 268.7773,161.045 L270.2095,161.1836 C270.4867,161.5532 270.4405,162.1076 270.1171,162.3386 C268.0381,162.2462 266.4211,162.2 264.7117,162.2 C262.7713,162.2 261.5239,162.2462 259.9069,162.3386 C259.5835,162.1076 259.5373,161.4608 259.8145,161.1836 L261.0619,161.045 C262.1245,160.9064 262.8637,160.6292 263.0947,160.121 C263.7415,158.4578 263.6953,152.8214 263.6953,150.6038 L263.6953,137.252 C263.6953,135.9584 263.6491,134.9882 262.6789,133.9256 C262.0321,133.2788 260.9233,132.9554 259.8145,132.8168 L259.0291,132.7244 C258.7519,132.4472 258.7519,131.7542 259.1215,131.5694 C261.0619,131.708 263.5105,131.708 264.3421,131.708 C265.0813,131.708 265.8667,131.6618 266.4673,131.5694 C267.3913,133.9256 272.8429,140.024 274.3675,141.7334 L278.8489,146.7692 C282.0367,150.3266 284.3005,152.9138 286.4719,155.1314 L286.5643,155.1314 C286.7491,154.9004 286.7491,154.1612 286.7491,153.191 L286.7491,143.3042 C286.7491,141.1328 286.7029,135.1268 285.8251,133.7408 C285.5479,133.325 284.8087,133.0478 282.9607,132.8168 L282.1753,132.7244 C281.8519,132.4472 281.8981,131.708 282.2677,131.5694 C284.3929,131.6618 285.9637,131.708 287.7193,131.708 C289.7059,131.708 290.9071,131.6618 292.4779,131.5694 C292.8475,131.8004 292.8475,132.4472 292.5703,132.7244 L291.9235,132.8168 C290.4451,133.0478 289.5211,133.4174 289.3363,133.787 C288.5509,135.4502 288.6433,141.179 288.6433,143.3042 Z M323.9863,154.9004 L323.9863,157.4876 C323.9863,159.3356 324.2635,160.4444 325.0951,160.7678 C325.2337,160.9064 325.2337,161.1836 325.0489,161.3222 C324.4945,161.3222 323.6629,161.507 322.7851,161.738 C320.3365,162.3848 317.0101,162.9392 314.5153,162.9392 C309.0175,162.9392 303.9817,161.4146 300.4243,157.811 C297.6523,155.039 296.1739,151.3892 296.1739,147.3236 C296.1739,143.3966 297.4675,139.4234 300.3319,136.3742 C303.4273,133.1402 308.0011,130.9688 314.9773,130.9688 C317.6107,130.9688 320.0593,131.477 320.8447,131.6618 C321.7225,131.8466 323.1547,132.17 323.7091,132.0776 C323.7091,133.6022 323.9863,136.0046 324.4021,138.7766 C324.2635,139.1462 323.4319,139.1924 323.1547,138.9152 C321.8611,133.9256 318.3961,132.3548 313.6837,132.3548 C304.7209,132.3548 300.7939,138.7304 300.7939,145.6604 C300.7939,154.5308 305.3677,161.507 314.6539,161.507 C317.5183,161.507 319.2277,160.9064 319.7359,160.121 C319.9669,159.7976 320.1979,158.966 320.1979,157.4876 L320.1979,155.6396 C320.1979,151.7588 320.0593,151.4816 317.1949,151.1582 L315.1621,150.9272 C314.7925,150.7424 314.8387,149.9108 315.1621,149.7722 C316.5019,149.8646 319.0429,149.9108 321.7687,149.9108 C323.5705,149.9108 325.1413,149.8646 326.6659,149.7722 C326.9893,149.957 327.0355,150.65 326.7121,150.9272 L325.9729,151.0196 C324.0325,151.2506 323.9863,152.5442 323.9863,154.9004 Z" id="COMING" fill="#000000"></path>
        </g>
    </g>
</svg>